#!OML:ASF E:\id_vita\Project 1\Capture day 1\Session 1\Male1.ASF
:FULLY-SPECIFIED
:DEGREES
936
root 5.89304 13.0671 -1.93246 -392.128 -87.1048 436.541
lowerback 27.5584 1.81282 -5.74612
upperback 6.54474 0.126901 -1.1005
thorax -7.93532 -0.0510354 2.06663
lowerneck -20.5341 0.423102 -1.87291
upperneck 15.7181 -0.321381 6.83791
head 8.27766 0.436758 2.57239
rclavicle -9.49197e-015 -1.08897e-014
rhumerus 43.1917 32.7611 -43.8323
rradius 54.3473
rwrist 14.9053
rhand -29.7606 21.9231
rfingers 7.12502
rthumb -3.08626 -8.03433
lclavicle -9.49197e-015 -1.08897e-014
lhumerus 49.7127 -22.6585 45.162
lradius 38.772
lwrist -25.4141
lhand -43.1897 78.506
lfingers 7.12502
lthumb -16.041 252.138
rfemur -84.0576 2.65203 18.6646
rtibia 86.5627
rfoot -35.3299 -26.5679
rtoes -23.2886
lfemur -11.4361 7.75537 -28.8667
ltibia 32.9575
lfoot -23.7412 -22.4644
ltoes -7.32462
937
root 5.78206 13.0739 -1.93702 -388.867 -86.9946 433.112
lowerback 27.5883 1.76904 -5.77271
upperback 6.4746 0.0596743 -1.15068
thorax -8.02397 -0.076771 2.04806
lowerneck -20.3185 0.475858 -1.62319
upperneck 15.523 -0.294785 6.74595
head 8.17368 0.448514 2.4973
rclavicle -2.15681e-014 -1.85875e-014
rhumerus 42.8858 32.8113 -44.5877
rradius 53.8631
rwrist 15.116
rhand -29.7797 22.1432
rfingers 7.12502
rthumb -3.10471 -7.81396
lclavicle -2.15681e-014 -1.85875e-014
lhumerus 49.6816 -22.9714 45.3063
lradius 38.4298
lwrist -25.7193
lhand -43.1537 78.2974
lfingers 7.12502
lthumb -16.0064 252.344
rfemur -82.7195 2.45462 18.8085
rtibia 86.7153
rfoot -39.4654 -23.2514
rtoes -14.9128
lfemur -11.9925 8.10809 -28.4947
ltibia 34.7428
lfoot -21.5695 -23.4287
ltoes -4.65441
938
root 5.66916 13.0941 -1.9499 -383.129 -86.9651 427.502
lowerback 27.2734 1.73337 -5.85335
upperback 6.38465 0.0312221 -1.10345
thorax -7.96619 -0.0831836 2.15589
lowerneck -20.164 0.557296 -1.51609
upperneck 15.1591 -0.226891 6.89585
head 8.02298 0.493821 2.53046
rclavicle -1.1778e-014 4.34841e-015
rhumerus 42.7829 32.922 -45.0519
rradius 53.3769
rwrist 15.0255
rhand -29.7854 22.2363
rfingers 7.12502
rthumb -3.11025 -7.72073
lclavicle -1.1778e-014 4.34841e-015
lhumerus 49.7183 -23.3108 45.145
lradius 38.2129
lwrist -25.5246
lhand -43.1367 78.3366
lfingers 7.12502
lthumb -15.99 252.303
rfemur -81.7021 2.35222 19.1846
rtibia 86.5012
rfoot -41.3305 -22.4898
rtoes -11.3515
lfemur -13.0382 8.5678 -27.9879
ltibia 36.6805
lfoot -19.6692 -24.1932
ltoes -3.61307
939
root 5.54104 13.1342 -1.95098 -376.456 -87.0576 420.69
lowerback 27.2913 1.6882 -5.74229
upperback 6.35964 0.00792894 -1.07086
thorax -8.00186 -0.0933914 2.13618
lowerneck -20.1135 0.649329 -1.43543
upperneck 14.8051 -0.178416 7.2437
head 7.89605 0.548344 2.63321
rclavicle -6.36111e-015 -1.07592e-014
rhumerus 42.7964 33.075 -45.5899
rradius 52.7282
rwrist 14.7712
rhand -29.7784 22.2895
rfingers 7.12502
rthumb -3.10349 -7.6677
lclavicle -6.36111e-015 -1.07592e-014
lhumerus 49.7501 -23.601 44.829
lradius 38.0584
lwrist -25.096
lhand -42.9778 79.044
lfingers 7.12502
lthumb -15.837 251.584
rfemur -80.5021 2.27961 19.6469
rtibia 86.2169
rfoot -42.7001 -20.5207
rtoes -6.2272
lfemur -13.9605 9.0334 -27.3674
ltibia 38.9523
lfoot -18.0829 -24.6232
ltoes -3.62959
940
root 5.41217 13.1691 -1.95423 -370.519 -87.0981 414.601
lowerback 27.2848 1.65347 -5.71458
upperback 6.31473 -0.0219198 -1.03658
thorax -8.04683 -0.104132 2.16824
lowerneck -19.9797 0.7121 -1.33035
upperneck 14.665 -0.159867 7.45288
head 7.82726 0.577498 2.68398
rclavicle 2.46493e-014 3.14577e-014
rhumerus 42.7284 33.1783 -46.5004
rradius 51.8085
rwrist 14.9479
rhand -29.7536 22.5009
rfingers 7.12502
rthumb -3.07954 -7.4566
lclavicle 2.46493e-014 3.14577e-014
lhumerus 49.5986 -23.7951 44.9336
lradius 37.7626
lwrist -25.201
lhand -42.9486 79.6026
lfingers 7.12502
lthumb -15.8088 251.023
rfemur -79.2982 2.23486 20.11
rtibia 85.7047
rfoot -43.1721 -19.7941
rtoes -4.11158
lfemur -14.8561 9.44982 -26.7927
ltibia 41.1874
lfoot -16.7491 -24.5601
ltoes -5.12036
941
root 5.30272 13.2113 -1.97104 -361.711 -86.8424 405.712
lowerback 27.3941 1.5665 -5.61717
upperback 6.23999 -0.0949623 -0.910678
thorax -8.17958 -0.131299 2.277
lowerneck -19.8363 0.810171 -1.02016
upperneck 14.6663 -0.0825819 7.28057
head 7.79981 0.611592 2.58255
rclavicle 1.28216e-014 2.22639e-014
rhumerus 42.6928 33.2061 -47.2505
rradius 50.8698
rwrist 15.436
rhand -29.7489 22.6937
rfingers 7.12502
rthumb -3.07498 -7.26388
lclavicle 1.28216e-014 2.22639e-014
lhumerus 49.6313 -24.0379 45.058
lradius 37.3588
lwrist -25.5581
lhand -42.7495 80.093
lfingers 7.12502
lthumb -15.6171 250.517
rfemur -78.2178 2.0281 20.7298
rtibia 85.0751
rfoot -43.3045 -20.7139
rtoes -5.79458
lfemur -15.9166 9.76763 -26.0507
ltibia 43.4521
lfoot -16.1089 -24.1505
ltoes -6.78958
942
root 5.17643 13.2479 -1.96851 -349.876 -86.7957 393.536
lowerback 27.4397 1.49345 -5.10505
upperback 6.3905 -0.0458925 -0.818714
thorax -8.03924 -0.126559 2.06961
lowerneck -20.1071 0.94741 -0.544603
upperneck 14.682 0.0119662 7.02168
head 7.84817 0.662598 2.43323
rclavicle 2.08724e-014 4.63665e-014
rhumerus 42.9408 33.187 -47.5526
rradius 50.2194
rwrist 15.33
rhand -29.7966 22.8033
rfingers 7.12502
rthumb -3.12102 -7.15363
lclavicle 2.08724e-014 4.63665e-014
lhumerus 49.9097 -24.2052 44.9231
lradius 37.0003
lwrist -25.839
lhand -42.4456 80.3287
lfingers 7.12502
lthumb -15.3244 250.259
rfemur -76.7808 1.90596 21.5845
rtibia 84.3605
rfoot -43.6304 -21.1562
rtoes -6.98298
lfemur -16.5635 10.1085 -25.1213
ltibia 45.6971
lfoot -16.1725 -22.9863
ltoes -8.45479
943
root 5.06398 13.2867 -1.98293 -351.25 -86.6623 395.188
lowerback 27.0566 1.45033 -5.57401
upperback 6.45115 -0.200907 -0.859104
thorax -7.76608 -0.198882 2.34352
lowerneck -20.4954 1.16066 -0.159085
upperneck 14.7381 0.247296 6.67698
head 7.92407 0.769518 2.28998
rclavicle 1.41137e-014 6.16232e-015
rhumerus 43.701 33.2495 -47.5263
rradius 49.5501
rwrist 14.9066
rhand -29.8175 22.8684
rfingers 7.12502
rthumb -3.14125 -7.08826
lclavicle 1.41137e-014 6.16232e-015
lhumerus 50.281 -24.1433 44.4176
lradius 36.6091
lwrist -25.8047
lhand -42.3101 80.2622
lfingers 7.12502
lthumb -15.1939 250.316
rfemur -76.2705 1.8391 21.5578
rtibia 83.6284
rfoot -43.665 -20.8869
rtoes -6.81252
lfemur -18.1536 10.2266 -25.0402
ltibia 48.0754
lfoot -16.0904 -21.6881
ltoes -10.2647
944
root 4.92594 13.3379 -1.98278 -345.609 -86.7879 389.088
lowerback 27.4195 1.49474 -5.53924
upperback 6.43235 -0.170598 -0.889072
thorax -7.97033 -0.182261 2.28205
lowerneck -20.0932 1.35086 0.371731
upperneck 14.6844 0.42046 6.36576
head 7.83374 0.842162 2.11351
rclavicle 2.26615e-014 -1.68967e-015
rhumerus 43.8435 33.4437 -48.0889
rradius 48.567
rwrist 15.4308
rhand -29.7301 22.9074
rfingers 7.12502
rthumb -3.05685 -7.05039
lclavicle 2.26615e-014 -1.68967e-015
lhumerus 50.4027 -24.5675 43.7604
lradius 36.2542
lwrist -25.4709
lhand -42.1811 80.3611
lfingers 7.12502
lthumb -15.0696 250.207
rfemur -74.6248 1.9473 21.9821
rtibia 82.7175
rfoot -43.9569 -20.5428
rtoes -6.23691
lfemur -18.9191 10.4905 -24.4766
ltibia 50.3912
lfoot -15.9556 -20.0923
ltoes -10.5748
945
root 4.80377 13.4017 -1.98395 -338.826 -86.5811 382.394
lowerback 27.3105 1.37744 -5.31837
upperback 6.39038 -0.241141 -0.842705
thorax -7.95957 -0.215392 2.22971
lowerneck -20.1366 1.48499 0.678449
upperneck 14.6909 0.534027 6.24167
head 7.8416 0.901091 2.03664
rclavicle -2.34566e-014 -1.92821e-014
rhumerus 44.0335 33.359 -48.7899
rradius 47.5124
rwrist 16.23
rhand -29.6397 23.056
rfingers 7.12502
rthumb -2.96946 -6.90309
lclavicle -2.34566e-014 -1.92821e-014
lhumerus 50.6129 -24.7953 43.2952
lradius 35.9552
lwrist -25.2327
lhand -42.2037 80.9345
lfingers 7.12502
lthumb -15.0914 249.636
rfemur -73.5847 1.8615 22.4701
rtibia 81.7334
rfoot -44.2215 -19.8045
rtoes -4.76805
lfemur -20.6092 10.5632 -23.9032
ltibia 52.7847
lfoot -15.099 -18.9984
ltoes -7.97963
946
root 4.68392 13.4659 -1.98882 -333.99 -86.3248 377.576
lowerback 27.2164 1.28043 -5.18319
upperback 6.42378 -0.310788 -0.767723
thorax -7.87075 -0.251998 2.2579
lowerneck -20.2028 1.57529 0.789211
upperneck 14.655 0.62663 6.22367
head 7.83878 0.949344 2.02434
rclavicle 2.94201e-014 -1.5207e-014
rhumerus 44.2406 33.212 -49.4394
rradius 46.7305
rwrist 16.384
rhand -29.6303 23.2633
rfingers 7.12502
rthumb -2.9604 -6.69591
lclavicle 2.94201e-014 -1.5207e-014
lhumerus 50.889 -25.02 42.7312
lradius 35.6895
lwrist -24.9163
lhand -42.1778 81.5674
lfingers 7.12502
lthumb -15.0664 249.001
rfemur -72.5083 1.71739 22.9258
rtibia 80.6961
rfoot -44.5036 -18.9799
rtoes -4.01584
lfemur -22.2412 10.7537 -23.3478
ltibia 55.1809
lfoot -14.0581 -18.0545
ltoes -4.50247
